# AST/ASF file generated using VICON BodyLanguage
# -----------------------------------------------
:version 1.10
:name VICON
:units
  mass 1.0
  length 0.45
  angle deg
:documentation
   .ast/.asf automatically generated from VICON data using
   VICON BodyBuilder and BodyLanguage model FoxedUp or BRILLIANT.MOD
:root
   order TX TY TZ RX RY RZ
   axis XYZ
   position 0 0 0  
   orientation 0 0 0 
:bonedata
  begin
     id 1 
     name lhipjoint
     direction 0.521452 -0.77106 0.36545 
     length 2.0933 
     axis 0 0 0  XYZ
  end
  begin
     id 2 
     name lfemur
     direction 0.34202 -0.939693 0  
     length 6.83441  
     axis 0 0 20  XYZ
    dof rx ry rz
    limits (-160.0 20.0)
           (-70.0 70.0)
           (-60.0 70.0)
  end
  begin
     id 3 
     name ltibia
     direction 0.34202 -0.939693 0   
     length 7.28749   
     axis 0 0 20   XYZ
    dof rx
    limits (-10.0 170.0)
  end
  begin
     id 4 
     name lfoot
     direction 0.100608 -0.276418 0.955757   
     length 1.52195   
     axis -90 7.62852e-016 20   XYZ
    dof rx rz
    limits (-45.0 90.0)
           (-70.0 20.0)
  end
  begin
     id 5 
     name ltoes
     direction 1.53558e-011 -4.21907e-011 1   
     length 0.770459   
     axis -90 7.62852e-016 20   XYZ
    dof rx
    limits (-90.0 20.0)
  end
  begin
     id 6 
     name rhipjoint
     direction -0.488071 -0.788702 0.373812   
     length 2.04648  
     axis 0 0 0  XYZ 
  end
  begin
     id 7 
     name rfemur
     direction -0.34202 -0.939693 0   
     length 6.92583   
     axis 0 0 -20   XYZ
    dof rx ry rz
    limits (-160.0 20.0)
           (-70.0 70.0)
           (-70.0 60.0)
  end
  begin
     id 8 
     name rtibia
     direction -0.34202 -0.939693 0   
     length 7.41043   
     axis 0 0 -20   XYZ
    dof rx
    limits (-10.0 170.0)
 end
 begin
     id 9 
     name rfoot
     direction -0.0784433 -0.215521 0.973343   
     length 1.67708  
     axis -90 -7.62852e-016 -20   XYZ
    dof rx rz
    limits (-45.0 90.0)
           (-20.0 70.0)
  end
  begin
     id 10 
     name rtoes
     direction -1.53551e-011 -4.21842e-011 1   
     length 0.849787   
     axis -90 -7.62852e-016 -20   XYZ
    dof rx
    limits (-90.0 20.0)
  end
  begin
     id 11 
     name lowerback
     direction -0.0122332 0.997575 -0.0685192   
     length 1.98724   
     axis 0 0 0   XYZ
    dof rx ry rz
    limits (-20.0 45.0)
           (-30.0 30.0)
           (-30.0 30.0)
  end
  begin
     id 12 
     name upperback
     direction 0.0182347 0.999724 -0.0148421   
     length 1.99029   
     axis 0 0 0   XYZ
    dof rx ry rz
    limits (-20.0 45.0)
           (-30.0 30.0)
           (-30.0 30.0)
  end
  begin
     id 13 
     name thorax
     direction 0.0242908 0.99956 0.0170184   
     length 1.99573   
     axis 0 0 0   XYZ
    dof rx ry rz
    limits (-20.0 45.0)
           (-30.0 30.0)
           (-30.0 30.0)
  end
  begin
     id 14 
     name lowerneck
     direction 0.0654488 0.985533 0.156338   
     length 1.4285   
     axis 0 0 0   XYZ
    dof rx ry rz
    limits (-20.0 45.0)
           (-30.0 30.0)
           (-30.0 30.0)
  end
  begin
     id 15 
     name upperneck
     direction -0.02953 0.998556 -0.0448842   
     length 1.44709   
     axis 0 0 0   XYZ
    dof rx ry rz
    limits (-20.0 45.0)
           (-30.0 30.0)
           (-30.0 30.0)
  end
  begin
     id 16
     name head
     direction -0.0155588 0.999386 -0.0314063  
     length 1.44689  
     axis 0 0 0   XYZ
    dof rx ry rz
    limits (-20.0 45.0)
           (-30.0 30.0)
           (-30.0 30.0)
  end
  begin
     id 17 
     name lclavicle
     direction 0.968229 0.236071 -0.0824755  
     length 3.60593  
     axis 0 0 0   XYZ
    dof ry rz
    limits (-20.0 10.0)
           (0.0 20.0)
  end
  begin
     id 18 
     name lhumerus
     direction 1 -4.48968e-011 7.8138e-029   
     length 5.06035   
     axis 180 -30 -90   XYZ
    dof rx ry rz
    limits (-60.0 90.0)
           (-90.0 90.0)
           (-90.0 90.0)
  end
  begin
     id 19
     name lradius
     direction 1 -4.48967e-011 9.02887e-028   
     length 3.1478   
     axis 180 -30 -90   XYZ
    dof rx
    limits (-10.0 170.0)
  end
  begin
     id 20
     name lwrist
     direction 1 -4.48961e-011 7.20928e-028   
     length 1.5739   
     axis -5.52449e-016 90 90   XYZ
    dof ry
    limits (-180.0 0.0)
 end
  begin
     id 21 
     name lhand
     direction 1 -4.48972e-011 1.44186e-027   
     length 0.606747   
     axis -9.20027e-016 90 90   XYZ
    dof rx rz
    limits (-90.0 90.0)
           (-45.0 45.0)
  end
  begin
     id 22 
     name lfingers
     direction 1 -4.48943e-011 2.88371e-027   
     length 0.489175   
     axis -1.84005e-015 90 90   XYZ
    dof rx
    limits (0.0 90.0)
  end
  begin
     id 23
     name lthumb
     direction 0.707107 -6.34917e-011 0.707107   
     length 0.70236   
     axis -90 45 2.85299e-015   XYZ
    dof rx rz
    limits (-45.0 45.0)
           (-45.0 45.0)
  end
  begin
     id 24 
     name rclavicle
     direction -0.978165 0.207816 0.0022268   
     length 3.35425  
     axis 0 0 0   XYZ 
    dof ry rz
    limits (-10.0 20.0)
           (-20.0 0.0)
  end
  begin
     id 25 
     name rhumerus
     direction -1 -4.48964e-011 -4.02159e-027  
     length 5.12273   
     axis 180 30 90   XYZ
    dof rx ry rz
    limits (-90.0 60.0)
           (-90.0 90.0)
           (-90.0 90.0)
  end
  begin
     id 26 
     name rradius
     direction -1 -4.48966e-011 1.62746e-027   
     length 3.422   
     axis 180 30 90   XYZ
    dof rx
    limits (-10.0 170.0)
  end
  begin
     id 27 
     name rwrist
     direction -1 -4.4896e-011 7.20928e-028   
     length 1.711   
     axis -5.52449e-016 -90 -90   XYZ
    dof ry
    limits (-180.0 0.0)
  end
  begin
     id 28
     name rhand
     direction -1 -4.48979e-011 1.44186e-027   
     length 0.704599   
     axis -9.20027e-016 -90 -90   XYZ
    dof rx rz
    limits (-90.0 90.0)
           (-45.0 45.0)
  end
  begin
     id 29
     name rfingers
     direction -1 -4.48962e-011 2.88371e-027   
     length 0.568066   
     axis -1.84005e-015 -90 -90   XYZ
    dof rx
    limits (0.0 90.0)
  end
  begin
     id 30
     name rthumb
     direction -0.707107 -6.34949e-011 0.707107   
     length 0.815633   
     axis -90 -45 -2.85299e-015   XYZ
    dof rx rz
    limits (-45.0 45.0)
           (-45.0 45.0)
  end
:hierarchy
  begin
    root lhipjoint rhipjoint lowerback
    lhipjoint lfemur
    lfemur ltibia
    ltibia lfoot
    lfoot ltoes
    rhipjoint rfemur
    rfemur rtibia
    rtibia rfoot
    rfoot rtoes
    lowerback upperback
    upperback thorax
    thorax lowerneck lclavicle rclavicle
    lowerneck upperneck
    upperneck head
    lclavicle lhumerus
    lhumerus lradius
    lradius lwrist
    lwrist lhand lthumb
    lhand lfingers
    rclavicle rhumerus
    rhumerus rradius
    rradius rwrist
    rwrist rhand rthumb
    rhand rfingers
  end

#!OML:ASF E:\id_vita\Project 1\Capture day 1\Session 1\Male1.ASF
:FULLY-SPECIFIED
:DEGREES
1
root -4.15303 15.4054 -2.64464 8.8414 85.5829 0.531583
lowerback -5.00134 3.10689 -0.883391
upperback -4.27054 4.27596 0.287533
thorax -1.68147 2.21073 0.930217
lowerneck 10.4484 21.5166 3.15423
upperneck 1.48933 29.0575 -3.00919
head -0.218137 14.64 -2.09597
rclavicle 3.26193e-014 3.77691e-015
rhumerus 43.7062 13.5486 -29.0071
rradius 61.9176
rwrist -12.6722
rhand -0.738841 -1.46832
rfingers 7.12502
rthumb 24.8825 -29.8689
lclavicle 3.26193e-014 3.77691e-015
lhumerus 45.8965 -13.9796 36.3229
lradius 58.3487
lwrist -5.3238
lhand -4.59894 25.426
lfingers 7.12502
lthumb 21.1787 54.2891
rfemur -34.1706 -1.86124 13.1627
rtibia 51.1456
rfoot -16.736 -17.6366
rtoes -14.9643
lfemur -32.6982 -3.72146 -9.97383
ltibia 51.3722
lfoot -25.6782 12.7937
ltoes -16.1207
2
root -4.15464 15.4052 -2.64574 9.30762 85.5599 0.985331
lowerback -7.15607 2.90689 -0.958551
upperback -2.77032 3.99119 0.468971
thorax 1.04699 2.03003 1.33138
lowerneck 9.84214 21.7418 2.77603
upperneck 0.310555 29.2425 -4.21198
head -0.366009 14.7361 -2.38668
rclavicle 1.49104e-014 -1.59028e-015
rhumerus 45.5292 12.1731 -28.7307
rradius 61.7515
rwrist -12.4241
rhand -0.724079 -1.40268
rfingers 7.12502
rthumb 24.8967 -29.8013
lclavicle 1.49104e-014 -1.59028e-015
lhumerus 46.6848 -11.9055 36.3774
lradius 58.2202
lwrist -5.54276
lhand -4.48883 25.3096
lfingers 7.12502
lthumb 21.2845 54.1608
rfemur -34.2185 -1.87116 13.1244
rtibia 51.1786
rfoot -16.7569 -17.6288
rtoes -15.1931
lfemur -32.7015 -3.70214 -10.0194
ltibia 51.3547
lfoot -25.6368 12.8164
ltoes -16.3086
3
root -4.1572 15.4045 -2.64686 9.78383 85.5357 1.45338
lowerback -7.05398 2.91616 -0.973622
upperback -2.83025 4.00524 0.443293
thorax 0.929209 2.03883 1.30618
lowerneck 9.97027 21.707 2.8567
upperneck 0.306465 29.2073 -4.25209
head -0.371535 14.7211 -2.42066
rclavicle -2.18353e-014 -5.1684e-015
rhumerus 45.4344 12.2504 -28.9535
rradius 61.8686
rwrist -12.1471
rhand -0.640197 -1.4877
rfingers 7.12502
rthumb 24.977 -29.8751
lclavicle -2.18353e-014 -5.1684e-015
lhumerus 46.6609 -12.0027 36.2656
lradius 58.2288
lwrist -5.42052
lhand -4.61261 25.2322
lfingers 7.12502
lthumb 21.1656 54.0968
rfemur -34.2588 -1.87462 13.0795
rtibia 51.1834
rfoot -16.7846 -17.5663
rtoes -15.1048
lfemur -32.7169 -3.69915 -10.0603
ltibia 51.3581
lfoot -25.6066 12.815
ltoes -16.3065
4
root -4.15862 15.4055 -2.64768 9.65628 85.5408 1.32889
lowerback -7.12467 2.90345 -0.993471
upperback -2.76314 3.9882 0.482876
thorax 1.03371 2.02873 1.36318
lowerneck 10.0587 21.6979 2.8884
upperneck 0.18679 29.1949 -4.42218
head -0.394168 14.7192 -2.48806
rclavicle -5.39809e-014 -5.76476e-015
rhumerus 45.5186 12.1707 -29.1654
rradius 61.8457
rwrist -12.0594
rhand -0.56968 -1.5845
rfingers 7.12502
rthumb 25.0446 -29.9625
lclavicle -5.39809e-014 -5.76476e-015
lhumerus 46.6741 -11.9328 36.1753
lradius 58.2165
lwrist -5.42268
lhand -4.72132 25.1737
lfingers 7.12502
lthumb 21.0612 54.05
rfemur -34.265 -1.85956 13.0838
rtibia 51.1845
rfoot -16.8251 -17.5609
rtoes -15.0542
lfemur -32.7301 -3.70946 -10.0452
ltibia 51.373
lfoot -25.6021 12.7882
ltoes -16.1555
5
root -4.15948 15.4055 -2.64843 8.38782 85.5309 0.0958749
lowerback -4.91852 3.11492 -0.843993
upperback -4.24601 4.28381 0.323015
thorax -1.70219 2.21355 0.940645
lowerneck 10.5202 21.4801 3.21102
upperneck 1.49059 29.0183 -3.14197
head -0.202079 14.6244 -2.14287
rclavicle 1.57413e-014 3.18055e-015
rhumerus 43.7082 13.5875 -29.5234
rradius 61.9673
rwrist -12.2287
rhand -0.649521 -1.59572
rfingers 7.12502
rthumb 24.9681 -29.9844
lclavicle 1.57413e-014 3.18055e-015
lhumerus 45.8976 -13.9612 36.2251
lradius 58.3855
lwrist -5.43998
lhand -4.72144 25.1185
lfingers 7.12502
lthumb 21.061 53.9948
rfemur -34.2236 -1.81057 13.1848
rtibia 51.1825
rfoot -16.8088 -17.602
rtoes -15.2671
lfemur -32.7059 -3.67806 -9.94807
ltibia 51.4019
lfoot -25.6266 12.7688
ltoes -16.0696
6
root -4.16271 15.403 -2.64879 7.72011 85.5439 -0.559242
lowerback -5.24975 3.07825 -0.859765
upperback -3.98561 4.23084 0.411648
thorax -1.25601 2.18239 1.06912
lowerneck 10.4204 21.5133 3.11304
upperneck 1.30222 29.0391 -3.32846
head -0.231705 14.6343 -2.18455
rclavicle 6.09399e-014 1.09332e-014
rhumerus 44.0461 13.3888 -29.3976
rradius 61.9316
rwrist -12.3132
rhand -0.769065 -1.56924
rfingers 7.12502
rthumb 24.8535 -29.9738
lclavicle 6.09399e-014 1.09332e-014
lhumerus 46.017 -13.6291 36.2683
lradius 58.3585
lwrist -5.5047
lhand -4.79811 25.0952
lfingers 7.12502
lthumb 20.9874 53.9797
rfemur -34.2159 -1.79888 13.2426
rtibia 51.1864
rfoot -16.7864 -17.5977
rtoes -15.3997
lfemur -32.7197 -3.67335 -9.8908
ltibia 51.437
lfoot -25.7094 12.7131
ltoes -15.9548
7
root -4.16531 15.4026 -2.64911 8.47406 85.609 0.202113
lowerback -4.82998 3.11045 -0.855168
upperback -4.25522 4.27737 0.312708
thorax -1.76079 2.21058 0.930167
lowerneck 10.6092 21.4547 3.20149
upperneck 1.37771 28.979 -3.10276
head -0.26176 14.6028 -2.15367
rclavicle -4.21983e-014 -5.96354e-015
rhumerus 43.6611 13.7027 -29.3014
rradius 61.9183
rwrist -12.5264
rhand -0.889139 -1.49917
rfingers 7.12502
rthumb 24.7385 -29.9195
lclavicle -4.21983e-014 -5.96354e-015
lhumerus 45.9582 -14.0822 36.166
lradius 58.4384
lwrist -5.39543
lhand -4.91144 25.2346
lfingers 7.12502
lthumb 20.8785 54.1311
rfemur -34.2116 -1.86296 13.1812
rtibia 51.1952
rfoot -16.7662 -17.5666
rtoes -15.1759
lfemur -32.7454 -3.75116 -9.94559
ltibia 51.4613
lfoot -25.7673 12.7961
ltoes -15.982
8
root -4.16645 15.4021 -2.6509 8.5305 85.634 0.267503
lowerback -5.21204 3.05827 -0.905878
upperback -3.96186 4.20456 0.397762
thorax -1.25403 2.16938 1.07808
lowerneck 10.5503 21.513 3.03312
upperneck 1.06902 29.0205 -3.33119
head -0.339388 14.6226 -2.21596
rclavicle 1.36913e-014 1.98785e-015
rhumerus 44.1027 13.5562 -28.8896
rradius 61.8442
rwrist -12.7996
rhand -1.12407 -1.43279
rfingers 7.12502
rthumb 24.5133 -29.8839
lclavicle 1.36913e-014 1.98785e-015
lhumerus 46.0673 -13.655 36.2211
lradius 58.4381
lwrist -5.48173
lhand -4.86055 25.2958
lfingers 7.12502
lthumb 20.9274 54.1869
rfemur -34.2019 -1.89648 13.1687
rtibia 51.2069
rfoot -16.7546 -17.5466
rtoes -14.9482
lfemur -32.7582 -3.77115 -9.94889
ltibia 51.4782
lfoot -25.7544 12.9151
ltoes -16.1713
9
root -4.16753 15.4003 -2.65262 8.46035 85.5958 0.201113
lowerback -5.22064 3.04395 -0.894777
upperback -3.93653 4.18439 0.418966
thorax -1.22339 2.15868 1.09436
lowerneck 10.5827 21.5193 2.97976
upperneck 1.00327 29.0206 -3.38771
head -0.364418 14.6234 -2.23573
rclavicle 7.47927e-015 -1.19271e-015
rhumerus 44.182 13.5797 -28.9857
rradius 61.8777
rwrist -12.6135
rhand -1.32221 -1.35157
rfingers 7.12502
rthumb 24.3233 -29.8283
lclavicle 7.47927e-015 -1.19271e-015
lhumerus 46.0082 -13.5621 36.2317
lradius 58.478
lwrist -5.48455
lhand -4.75379 25.223
lfingers 7.12502
lthumb 21.03 54.1028
rfemur -34.2045 -1.85488 13.1579
rtibia 51.2126
rfoot -16.7701 -17.5895
rtoes -15.1374
lfemur -32.7482 -3.72087 -9.95593
ltibia 51.4824
lfoot -25.6994 12.817
ltoes -16.1061
10
root -4.16887 15.3985 -2.6524 8.67652 85.6066 0.442779
lowerback -6.91161 2.86293 -0.890139
upperback -2.7226 3.92336 0.521575
thorax 0.963751 1.9954 1.3295
lowerneck 10.231 21.6893 2.74198
upperneck -0.0680154 29.1558 -4.42584
head -0.526278 14.699 -2.52305
rclavicle 2.4303e-014 3.18055e-015
rhumerus 45.6408 12.449 -28.9761
rradius 61.7242
rwrist -12.4137
rhand -1.47016 -1.20427
rfingers 7.12502
rthumb 24.1815 -29.6999
lclavicle 2.4303e-014 3.18055e-015
lhumerus 46.6229 -11.9326 36.0248
lradius 58.3781
lwrist -5.52991
lhand -4.80826 25.093
lfingers 7.12502
lthumb 20.9776 53.9785
rfemur -34.1829 -1.82816 13.1352
rtibia 51.2263
rfoot -16.7224 -17.7143
rtoes -15.3514
lfemur -32.727 -3.73945 -9.97356
ltibia 51.4938
lfoot -25.6937 12.6823
ltoes -15.8959
